<mxfile host="65bd71144e">
    <diagram id="utv_D--Is2pyvzvbY1Hj" name="Page-1">
        <mxGraphModel dx="979" dy="787" grid="1" gridSize="10" guides="1" tooltips="1" connect="1" arrows="1" fold="1" page="1" pageScale="1" pageWidth="827" pageHeight="1169" math="0" shadow="0">
            <root>
                <mxCell id="0"/>
                <mxCell id="1" parent="0"/>
                <mxCell id="3" value="Core - Controller" style="shape=umlLifeline;perimeter=lifelinePerimeter;whiteSpace=wrap;html=1;container=1;collapsible=0;recursiveResize=0;outlineConnect=0;" parent="1" vertex="1">
                    <mxGeometry x="320" y="140" width="100" height="200" as="geometry"/>
                </mxCell>
                <mxCell id="7" value="" style="html=1;points=[];perimeter=orthogonalPerimeter;" parent="3" vertex="1">
                    <mxGeometry x="45" y="70" width="10" height="110" as="geometry"/>
                </mxCell>
                <mxCell id="8" value="httpPost(body=dslScript)" style="html=1;verticalAlign=bottom;endArrow=block;entryX=0;entryY=0;" parent="1" source="Bd0fc6Pxmun-X_p79CJK-13" target="7" edge="1">
                    <mxGeometry relative="1" as="geometry">
                        <mxPoint x="109.5" y="210.0000000000001" as="sourcePoint"/>
                    </mxGeometry>
                </mxCell>
                <mxCell id="9" value="" style="html=1;verticalAlign=bottom;endArrow=open;dashed=1;endSize=8;exitX=0;exitY=0.95;" parent="1" source="7" target="Bd0fc6Pxmun-X_p79CJK-13" edge="1">
                    <mxGeometry relative="1" as="geometry">
                        <mxPoint x="109.5" y="314.5" as="targetPoint"/>
                    </mxGeometry>
                </mxCell>
                <mxCell id="10" value="Core - DslService" style="shape=umlLifeline;perimeter=lifelinePerimeter;whiteSpace=wrap;html=1;container=1;collapsible=0;recursiveResize=0;outlineConnect=0;" parent="1" vertex="1">
                    <mxGeometry x="480" y="140" width="100" height="200" as="geometry"/>
                </mxCell>
                <mxCell id="11" value="" style="html=1;points=[];perimeter=orthogonalPerimeter;" parent="10" vertex="1">
                    <mxGeometry x="45" y="110" width="10" height="50" as="geometry"/>
                </mxCell>
                <mxCell id="12" value="createDsl(dslScript)" style="html=1;verticalAlign=bottom;endArrow=block;entryX=0;entryY=0;" parent="1" source="7" target="11" edge="1">
                    <mxGeometry relative="1" as="geometry">
                        <mxPoint x="410" y="250" as="sourcePoint"/>
                    </mxGeometry>
                </mxCell>
                <mxCell id="13" value="" style="html=1;verticalAlign=bottom;endArrow=open;dashed=1;endSize=8;exitX=0;exitY=0.95;" parent="1" source="11" target="7" edge="1">
                    <mxGeometry relative="1" as="geometry">
                        <mxPoint x="440" y="298" as="targetPoint"/>
                    </mxGeometry>
                </mxCell>
                <mxCell id="Bd0fc6Pxmun-X_p79CJK-13" value="" style="shape=umlLifeline;participant=umlActor;perimeter=lifelinePerimeter;whiteSpace=wrap;html=1;container=1;collapsible=0;recursiveResize=0;verticalAlign=top;spacingTop=36;outlineConnect=0;" parent="1" vertex="1">
                    <mxGeometry x="130" y="140" width="20" height="200" as="geometry"/>
                </mxCell>
            </root>
        </mxGraphModel>
    </diagram>
    <diagram id="WNd9i1MPyn-59SSwygJw" name="Page-2">
        <mxGraphModel dx="816" dy="656" grid="1" gridSize="10" guides="1" tooltips="1" connect="1" arrows="1" fold="1" page="1" pageScale="1" pageWidth="827" pageHeight="1169" math="0" shadow="0">
            <root>
                <mxCell id="0"/>
                <mxCell id="1" parent="0"/>
                <mxCell id="G83AK0xZ_wEE0YAN_g1M-21" value="alt" style="shape=umlFrame;tabWidth=110;tabHeight=30;tabPosition=left;html=1;boundedLbl=1;labelInHeader=1;width=70;height=30;" vertex="1" parent="1">
                    <mxGeometry x="120" y="420" width="550" height="200" as="geometry"/>
                </mxCell>
                <mxCell id="G83AK0xZ_wEE0YAN_g1M-22" value="[error]" style="text" vertex="1" parent="G83AK0xZ_wEE0YAN_g1M-21">
                    <mxGeometry width="100" height="20" relative="1" as="geometry">
                        <mxPoint x="20" y="40" as="offset"/>
                    </mxGeometry>
                </mxCell>
                <mxCell id="G83AK0xZ_wEE0YAN_g1M-23" value="[success]" style="line;strokeWidth=1;dashed=1;labelPosition=center;verticalLabelPosition=bottom;align=left;verticalAlign=top;spacingLeft=20;spacingTop=15;" vertex="1" parent="G83AK0xZ_wEE0YAN_g1M-21">
                    <mxGeometry y="100" width="550" height="8" as="geometry"/>
                </mxCell>
                <mxCell id="h5IRZnUkHoU4-fTVbyJ--1" value="Core - DslService" style="shape=umlLifeline;perimeter=lifelinePerimeter;whiteSpace=wrap;html=1;container=1;collapsible=0;recursiveResize=0;outlineConnect=0;" vertex="1" parent="1">
                    <mxGeometry x="170" y="140" width="100" height="470" as="geometry"/>
                </mxCell>
                <mxCell id="h5IRZnUkHoU4-fTVbyJ--3" value="" style="html=1;points=[];perimeter=orthogonalPerimeter;" vertex="1" parent="h5IRZnUkHoU4-fTVbyJ--1">
                    <mxGeometry x="45" y="60" width="10" height="80" as="geometry"/>
                </mxCell>
                <mxCell id="h5IRZnUkHoU4-fTVbyJ--4" value="createDsl(dslScript)" style="html=1;verticalAlign=bottom;startArrow=oval;endArrow=block;startSize=8;" edge="1" parent="h5IRZnUkHoU4-fTVbyJ--1">
                    <mxGeometry relative="1" as="geometry">
                        <mxPoint x="-80" y="60" as="sourcePoint"/>
                        <mxPoint x="50" y="60" as="targetPoint"/>
                    </mxGeometry>
                </mxCell>
                <mxCell id="G83AK0xZ_wEE0YAN_g1M-10" value="" style="html=1;points=[];perimeter=orthogonalPerimeter;" vertex="1" parent="h5IRZnUkHoU4-fTVbyJ--1">
                    <mxGeometry x="50" y="170" width="10" height="40" as="geometry"/>
                </mxCell>
                <mxCell id="G83AK0xZ_wEE0YAN_g1M-24" value="" style="html=1;points=[];perimeter=orthogonalPerimeter;" vertex="1" parent="h5IRZnUkHoU4-fTVbyJ--1">
                    <mxGeometry x="45" y="300" width="10" height="70" as="geometry"/>
                </mxCell>
                <mxCell id="G83AK0xZ_wEE0YAN_g1M-28" value="" style="html=1;points=[];perimeter=orthogonalPerimeter;" vertex="1" parent="h5IRZnUkHoU4-fTVbyJ--1">
                    <mxGeometry x="45" y="400" width="10" height="60" as="geometry"/>
                </mxCell>
                <mxCell id="G83AK0xZ_wEE0YAN_g1M-1" value="DataBase" style="shape=umlLifeline;perimeter=lifelinePerimeter;whiteSpace=wrap;html=1;container=1;collapsible=0;recursiveResize=0;outlineConnect=0;" vertex="1" parent="1">
                    <mxGeometry x="520" y="130" width="100" height="510" as="geometry"/>
                </mxCell>
                <mxCell id="G83AK0xZ_wEE0YAN_g1M-6" value="" style="html=1;points=[];perimeter=orthogonalPerimeter;" vertex="1" parent="G83AK0xZ_wEE0YAN_g1M-1">
                    <mxGeometry x="45" y="80" width="10" height="25" as="geometry"/>
                </mxCell>
                <mxCell id="G83AK0xZ_wEE0YAN_g1M-32" value="" style="html=1;points=[];perimeter=orthogonalPerimeter;" vertex="1" parent="G83AK0xZ_wEE0YAN_g1M-1">
                    <mxGeometry x="45" y="430" width="10" height="20" as="geometry"/>
                </mxCell>
                <mxCell id="G83AK0xZ_wEE0YAN_g1M-35" value="" style="html=1;points=[];perimeter=orthogonalPerimeter;" vertex="1" parent="G83AK0xZ_wEE0YAN_g1M-1">
                    <mxGeometry x="45" y="340" width="10" height="20" as="geometry"/>
                </mxCell>
                <mxCell id="G83AK0xZ_wEE0YAN_g1M-36" value="" style="html=1;verticalAlign=bottom;endArrow=open;dashed=1;endSize=8;exitX=0;exitY=0.95;entryX=0.9;entryY=0.817;entryDx=0;entryDy=0;entryPerimeter=0;" edge="1" parent="G83AK0xZ_wEE0YAN_g1M-1" source="G83AK0xZ_wEE0YAN_g1M-35">
                    <mxGeometry relative="1" as="geometry">
                        <mxPoint x="-296" y="359.0200000000002" as="targetPoint"/>
                    </mxGeometry>
                </mxCell>
                <mxCell id="G83AK0xZ_wEE0YAN_g1M-4" value="" style="html=1;verticalAlign=bottom;labelBackgroundColor=none;endArrow=open;endFill=0;dashed=1;entryX=0;entryY=0.067;entryDx=0;entryDy=0;entryPerimeter=0;" edge="1" parent="1" target="G83AK0xZ_wEE0YAN_g1M-5">
                    <mxGeometry width="160" relative="1" as="geometry">
                        <mxPoint x="230" y="273" as="sourcePoint"/>
                        <mxPoint x="330" y="270" as="targetPoint"/>
                    </mxGeometry>
                </mxCell>
                <mxCell id="G83AK0xZ_wEE0YAN_g1M-9" value="&amp;lt;&amp;lt;async - create&amp;gt;&amp;gt;" style="edgeLabel;html=1;align=center;verticalAlign=middle;resizable=0;points=[];" vertex="1" connectable="0" parent="G83AK0xZ_wEE0YAN_g1M-4">
                    <mxGeometry x="0.45" relative="1" as="geometry">
                        <mxPoint x="-27" y="-10" as="offset"/>
                    </mxGeometry>
                </mxCell>
                <mxCell id="G83AK0xZ_wEE0YAN_g1M-5" value="BuilderJob" style="shape=umlLifeline;perimeter=lifelinePerimeter;whiteSpace=wrap;html=1;container=1;collapsible=0;recursiveResize=0;outlineConnect=0;" vertex="1" parent="1">
                    <mxGeometry x="360" y="250" width="100" height="360" as="geometry"/>
                </mxCell>
                <mxCell id="G83AK0xZ_wEE0YAN_g1M-15" value="" style="html=1;points=[];perimeter=orthogonalPerimeter;" vertex="1" parent="G83AK0xZ_wEE0YAN_g1M-5">
                    <mxGeometry x="44" y="130" width="10" height="30" as="geometry"/>
                </mxCell>
                <mxCell id="G83AK0xZ_wEE0YAN_g1M-16" value="buildDsl" style="edgeStyle=orthogonalEdgeStyle;html=1;align=left;spacingLeft=2;endArrow=block;rounded=0;entryX=1;entryY=0;" edge="1" target="G83AK0xZ_wEE0YAN_g1M-15" parent="G83AK0xZ_wEE0YAN_g1M-5">
                    <mxGeometry relative="1" as="geometry">
                        <mxPoint x="49" y="110" as="sourcePoint"/>
                        <Array as="points">
                            <mxPoint x="79" y="110"/>
                        </Array>
                    </mxGeometry>
                </mxCell>
                <mxCell id="G83AK0xZ_wEE0YAN_g1M-7" value="createDsl(...)" style="html=1;verticalAlign=bottom;endArrow=block;entryX=0;entryY=0;" edge="1" target="G83AK0xZ_wEE0YAN_g1M-6" parent="1" source="h5IRZnUkHoU4-fTVbyJ--1">
                    <mxGeometry relative="1" as="geometry">
                        <mxPoint x="289" y="235" as="sourcePoint"/>
                    </mxGeometry>
                </mxCell>
                <mxCell id="G83AK0xZ_wEE0YAN_g1M-8" value="id" style="html=1;verticalAlign=bottom;endArrow=open;dashed=1;endSize=8;exitX=0;exitY=0.95;" edge="1" source="G83AK0xZ_wEE0YAN_g1M-6" parent="1" target="h5IRZnUkHoU4-fTVbyJ--1">
                    <mxGeometry relative="1" as="geometry">
                        <mxPoint x="289" y="311" as="targetPoint"/>
                    </mxGeometry>
                </mxCell>
                <mxCell id="G83AK0xZ_wEE0YAN_g1M-11" value="httpGetDsl(id)" style="html=1;verticalAlign=bottom;endArrow=block;entryX=1;entryY=0;" edge="1" target="G83AK0xZ_wEE0YAN_g1M-10" parent="1" source="G83AK0xZ_wEE0YAN_g1M-5">
                    <mxGeometry relative="1" as="geometry">
                        <mxPoint x="290" y="300" as="sourcePoint"/>
                    </mxGeometry>
                </mxCell>
                <mxCell id="G83AK0xZ_wEE0YAN_g1M-12" value="dslScript" style="html=1;verticalAlign=bottom;endArrow=open;dashed=1;endSize=8;exitX=1;exitY=0.95;" edge="1" source="G83AK0xZ_wEE0YAN_g1M-10" parent="1" target="G83AK0xZ_wEE0YAN_g1M-5">
                    <mxGeometry relative="1" as="geometry">
                        <mxPoint x="290" y="357" as="targetPoint"/>
                    </mxGeometry>
                </mxCell>
                <mxCell id="G83AK0xZ_wEE0YAN_g1M-25" value="reportError(errorMessage)" style="html=1;verticalAlign=bottom;endArrow=block;entryX=1;entryY=0;" edge="1" target="G83AK0xZ_wEE0YAN_g1M-24" parent="1" source="G83AK0xZ_wEE0YAN_g1M-5">
                    <mxGeometry relative="1" as="geometry">
                        <mxPoint x="290" y="440" as="sourcePoint"/>
                    </mxGeometry>
                </mxCell>
                <mxCell id="G83AK0xZ_wEE0YAN_g1M-26" value="" style="html=1;verticalAlign=bottom;endArrow=open;dashed=1;endSize=8;exitX=1;exitY=0.95;" edge="1" source="G83AK0xZ_wEE0YAN_g1M-24" parent="1" target="G83AK0xZ_wEE0YAN_g1M-5">
                    <mxGeometry relative="1" as="geometry">
                        <mxPoint x="290" y="497" as="targetPoint"/>
                    </mxGeometry>
                </mxCell>
                <mxCell id="G83AK0xZ_wEE0YAN_g1M-30" value="" style="html=1;verticalAlign=bottom;endArrow=open;dashed=1;endSize=8;exitX=1;exitY=0.95;" edge="1" source="G83AK0xZ_wEE0YAN_g1M-28" parent="1" target="G83AK0xZ_wEE0YAN_g1M-5">
                    <mxGeometry relative="1" as="geometry">
                        <mxPoint x="290" y="597" as="targetPoint"/>
                    </mxGeometry>
                </mxCell>
                <mxCell id="G83AK0xZ_wEE0YAN_g1M-29" value="uplodJar(compiledScript)" style="html=1;verticalAlign=bottom;endArrow=block;entryX=1;entryY=0;" edge="1" target="G83AK0xZ_wEE0YAN_g1M-28" parent="1" source="G83AK0xZ_wEE0YAN_g1M-5">
                    <mxGeometry relative="1" as="geometry">
                        <mxPoint x="290" y="540" as="sourcePoint"/>
                    </mxGeometry>
                </mxCell>
                <mxCell id="G83AK0xZ_wEE0YAN_g1M-31" value="" style="html=1;verticalAlign=bottom;endArrow=open;dashed=1;endSize=8;" edge="1" parent="1">
                    <mxGeometry x="-0.1429" y="-10" relative="1" as="geometry">
                        <mxPoint x="220" y="270" as="sourcePoint"/>
                        <mxPoint x="80" y="270" as="targetPoint"/>
                        <mxPoint as="offset"/>
                    </mxGeometry>
                </mxCell>
                <mxCell id="G83AK0xZ_wEE0YAN_g1M-34" value="" style="html=1;verticalAlign=bottom;endArrow=open;dashed=1;endSize=8;exitX=0;exitY=0.95;" edge="1" source="G83AK0xZ_wEE0YAN_g1M-32" parent="1">
                    <mxGeometry relative="1" as="geometry">
                        <mxPoint x="220" y="580" as="targetPoint"/>
                    </mxGeometry>
                </mxCell>
                <mxCell id="G83AK0xZ_wEE0YAN_g1M-33" value="updateDsl(compiledScript, status=&quot;ready&quot;)" style="html=1;verticalAlign=bottom;endArrow=block;entryX=0;entryY=0;" edge="1" target="G83AK0xZ_wEE0YAN_g1M-32" parent="1" source="G83AK0xZ_wEE0YAN_g1M-28">
                    <mxGeometry relative="1" as="geometry">
                        <mxPoint x="495" y="560" as="sourcePoint"/>
                    </mxGeometry>
                </mxCell>
                <mxCell id="G83AK0xZ_wEE0YAN_g1M-37" value="updateDsl(errorMessage, status=&quot;error&quot;)" style="html=1;verticalAlign=bottom;endArrow=block;entryX=0;entryY=0;" edge="1" parent="1" target="G83AK0xZ_wEE0YAN_g1M-35">
                    <mxGeometry relative="1" as="geometry">
                        <mxPoint x="220" y="470" as="sourcePoint"/>
                    </mxGeometry>
                </mxCell>
            </root>
        </mxGraphModel>
    </diagram>
    <diagram name="Copy of Page-2" id="a5JG3vgdXDS3aouaaDYc">
        <mxGraphModel dx="675" dy="543" grid="1" gridSize="10" guides="1" tooltips="1" connect="1" arrows="1" fold="1" page="1" pageScale="1" pageWidth="827" pageHeight="1169" math="0" shadow="0">
            <root>
                <mxCell id="0touS1AEJUGKjj6mapaU-0"/>
                <mxCell id="0touS1AEJUGKjj6mapaU-1" parent="0touS1AEJUGKjj6mapaU-0"/>
                <mxCell id="0touS1AEJUGKjj6mapaU-2" value="alt" style="shape=umlFrame;tabWidth=110;tabHeight=30;tabPosition=left;html=1;boundedLbl=1;labelInHeader=1;width=70;height=30;" parent="0touS1AEJUGKjj6mapaU-1" vertex="1">
                    <mxGeometry x="120" y="420" width="550" height="200" as="geometry"/>
                </mxCell>
                <mxCell id="0touS1AEJUGKjj6mapaU-3" value="[error]" style="text" parent="0touS1AEJUGKjj6mapaU-2" vertex="1">
                    <mxGeometry width="100" height="20" relative="1" as="geometry">
                        <mxPoint x="20" y="40" as="offset"/>
                    </mxGeometry>
                </mxCell>
                <mxCell id="0touS1AEJUGKjj6mapaU-4" value="[success]" style="line;strokeWidth=1;dashed=1;labelPosition=center;verticalLabelPosition=bottom;align=left;verticalAlign=top;spacingLeft=20;spacingTop=15;" parent="0touS1AEJUGKjj6mapaU-2" vertex="1">
                    <mxGeometry y="100" width="550" height="8" as="geometry"/>
                </mxCell>
                <mxCell id="0touS1AEJUGKjj6mapaU-5" value="Core - DslService" style="shape=umlLifeline;perimeter=lifelinePerimeter;whiteSpace=wrap;html=1;container=1;collapsible=0;recursiveResize=0;outlineConnect=0;" parent="0touS1AEJUGKjj6mapaU-1" vertex="1">
                    <mxGeometry x="170" y="250" width="100" height="410" as="geometry"/>
                </mxCell>
                <mxCell id="0touS1AEJUGKjj6mapaU-8" value="" style="html=1;points=[];perimeter=orthogonalPerimeter;" parent="0touS1AEJUGKjj6mapaU-5" vertex="1">
                    <mxGeometry x="45" y="60" width="10" height="40" as="geometry"/>
                </mxCell>
                <mxCell id="0touS1AEJUGKjj6mapaU-9" value="" style="html=1;points=[];perimeter=orthogonalPerimeter;" parent="0touS1AEJUGKjj6mapaU-5" vertex="1">
                    <mxGeometry x="45" y="190" width="10" height="60" as="geometry"/>
                </mxCell>
                <mxCell id="0touS1AEJUGKjj6mapaU-10" value="" style="html=1;points=[];perimeter=orthogonalPerimeter;" parent="0touS1AEJUGKjj6mapaU-5" vertex="1">
                    <mxGeometry x="45" y="290" width="10" height="60" as="geometry"/>
                </mxCell>
                <mxCell id="0touS1AEJUGKjj6mapaU-11" value="DataBase" style="shape=umlLifeline;perimeter=lifelinePerimeter;whiteSpace=wrap;html=1;container=1;collapsible=0;recursiveResize=0;outlineConnect=0;" parent="0touS1AEJUGKjj6mapaU-1" vertex="1">
                    <mxGeometry x="520" y="250" width="100" height="410" as="geometry"/>
                </mxCell>
                <mxCell id="0touS1AEJUGKjj6mapaU-13" value="" style="html=1;points=[];perimeter=orthogonalPerimeter;" parent="0touS1AEJUGKjj6mapaU-11" vertex="1">
                    <mxGeometry x="45" y="310" width="10" height="20" as="geometry"/>
                </mxCell>
                <mxCell id="0touS1AEJUGKjj6mapaU-14" value="" style="html=1;points=[];perimeter=orthogonalPerimeter;" parent="0touS1AEJUGKjj6mapaU-11" vertex="1">
                    <mxGeometry x="45" y="210" width="10" height="20" as="geometry"/>
                </mxCell>
                <mxCell id="0touS1AEJUGKjj6mapaU-18" value="BuilderJob" style="shape=umlLifeline;perimeter=lifelinePerimeter;whiteSpace=wrap;html=1;container=1;collapsible=0;recursiveResize=0;outlineConnect=0;" parent="0touS1AEJUGKjj6mapaU-1" vertex="1">
                    <mxGeometry x="360" y="250" width="100" height="390" as="geometry"/>
                </mxCell>
                <mxCell id="0touS1AEJUGKjj6mapaU-19" value="" style="html=1;points=[];perimeter=orthogonalPerimeter;" parent="0touS1AEJUGKjj6mapaU-18" vertex="1">
                    <mxGeometry x="44" y="130" width="10" height="30" as="geometry"/>
                </mxCell>
                <mxCell id="0touS1AEJUGKjj6mapaU-20" value="buildDsl" style="edgeStyle=orthogonalEdgeStyle;html=1;align=left;spacingLeft=2;endArrow=block;rounded=0;entryX=1;entryY=0;" parent="0touS1AEJUGKjj6mapaU-18" target="0touS1AEJUGKjj6mapaU-19" edge="1">
                    <mxGeometry relative="1" as="geometry">
                        <mxPoint x="49" y="110" as="sourcePoint"/>
                        <Array as="points">
                            <mxPoint x="79" y="110"/>
                        </Array>
                    </mxGeometry>
                </mxCell>
                <mxCell id="0touS1AEJUGKjj6mapaU-23" value="httpGetDsl(id)" style="html=1;verticalAlign=bottom;endArrow=block;entryX=1;entryY=0;" parent="0touS1AEJUGKjj6mapaU-1" source="0touS1AEJUGKjj6mapaU-18" target="0touS1AEJUGKjj6mapaU-8" edge="1">
                    <mxGeometry relative="1" as="geometry">
                        <mxPoint x="290" y="300" as="sourcePoint"/>
                    </mxGeometry>
                </mxCell>
                <mxCell id="0touS1AEJUGKjj6mapaU-24" value="dslScript" style="html=1;verticalAlign=bottom;endArrow=open;dashed=1;endSize=8;exitX=1;exitY=0.95;" parent="0touS1AEJUGKjj6mapaU-1" source="0touS1AEJUGKjj6mapaU-8" target="0touS1AEJUGKjj6mapaU-18" edge="1">
                    <mxGeometry relative="1" as="geometry">
                        <mxPoint x="290" y="357" as="targetPoint"/>
                    </mxGeometry>
                </mxCell>
                <mxCell id="0touS1AEJUGKjj6mapaU-25" value="reportError(errorMessage)" style="html=1;verticalAlign=bottom;endArrow=block;entryX=1;entryY=0;" parent="0touS1AEJUGKjj6mapaU-1" source="0touS1AEJUGKjj6mapaU-18" target="0touS1AEJUGKjj6mapaU-9" edge="1">
                    <mxGeometry relative="1" as="geometry">
                        <mxPoint x="290" y="440" as="sourcePoint"/>
                    </mxGeometry>
                </mxCell>
                <mxCell id="0touS1AEJUGKjj6mapaU-26" value="" style="html=1;verticalAlign=bottom;endArrow=open;dashed=1;endSize=8;exitX=1;exitY=0.95;" parent="0touS1AEJUGKjj6mapaU-1" source="0touS1AEJUGKjj6mapaU-9" target="0touS1AEJUGKjj6mapaU-18" edge="1">
                    <mxGeometry relative="1" as="geometry">
                        <mxPoint x="290" y="497" as="targetPoint"/>
                    </mxGeometry>
                </mxCell>
                <mxCell id="0touS1AEJUGKjj6mapaU-27" value="" style="html=1;verticalAlign=bottom;endArrow=open;dashed=1;endSize=8;exitX=1;exitY=0.95;" parent="0touS1AEJUGKjj6mapaU-1" source="0touS1AEJUGKjj6mapaU-10" target="0touS1AEJUGKjj6mapaU-18" edge="1">
                    <mxGeometry relative="1" as="geometry">
                        <mxPoint x="290" y="597" as="targetPoint"/>
                    </mxGeometry>
                </mxCell>
                <mxCell id="0touS1AEJUGKjj6mapaU-28" value="uplodJar(compiledScript)" style="html=1;verticalAlign=bottom;endArrow=block;entryX=1;entryY=0;" parent="0touS1AEJUGKjj6mapaU-1" source="0touS1AEJUGKjj6mapaU-18" target="0touS1AEJUGKjj6mapaU-10" edge="1">
                    <mxGeometry relative="1" as="geometry">
                        <mxPoint x="290" y="540" as="sourcePoint"/>
                    </mxGeometry>
                </mxCell>
                <mxCell id="0touS1AEJUGKjj6mapaU-30" value="" style="html=1;verticalAlign=bottom;endArrow=open;dashed=1;endSize=8;exitX=0;exitY=0.95;" parent="0touS1AEJUGKjj6mapaU-1" source="0touS1AEJUGKjj6mapaU-13" target="0touS1AEJUGKjj6mapaU-10" edge="1">
                    <mxGeometry relative="1" as="geometry">
                        <mxPoint x="260" y="580" as="targetPoint"/>
                    </mxGeometry>
                </mxCell>
                <mxCell id="0touS1AEJUGKjj6mapaU-31" value="updateDsl(compiledScript, status=&quot;ready&quot;)" style="html=1;verticalAlign=bottom;endArrow=block;entryX=0;entryY=0;" parent="0touS1AEJUGKjj6mapaU-1" source="0touS1AEJUGKjj6mapaU-10" target="0touS1AEJUGKjj6mapaU-13" edge="1">
                    <mxGeometry relative="1" as="geometry">
                        <mxPoint x="495" y="560" as="sourcePoint"/>
                    </mxGeometry>
                </mxCell>
                <mxCell id="0touS1AEJUGKjj6mapaU-32" value="updateDsl(errorMessage, status=&quot;error&quot;)" style="html=1;verticalAlign=bottom;endArrow=block;entryX=0;entryY=0;" parent="0touS1AEJUGKjj6mapaU-1" target="0touS1AEJUGKjj6mapaU-14" edge="1" source="0touS1AEJUGKjj6mapaU-9">
                    <mxGeometry relative="1" as="geometry">
                        <mxPoint x="250" y="470" as="sourcePoint"/>
                    </mxGeometry>
                </mxCell>
                <mxCell id="0touS1AEJUGKjj6mapaU-15" value="" style="html=1;verticalAlign=bottom;endArrow=open;dashed=1;endSize=8;exitX=0;exitY=0.95;" parent="0touS1AEJUGKjj6mapaU-1" source="0touS1AEJUGKjj6mapaU-14" target="0touS1AEJUGKjj6mapaU-9" edge="1">
                    <mxGeometry relative="1" as="geometry">
                        <mxPoint x="224" y="609.0200000000002" as="targetPoint"/>
                    </mxGeometry>
                </mxCell>
                <mxCell id="2a-AqLqMkyWlzdUfhncV-0" value="" style="shape=umlDestroy;" parent="0touS1AEJUGKjj6mapaU-1" vertex="1">
                    <mxGeometry x="397.5" y="630" width="25" height="20" as="geometry"/>
                </mxCell>
            </root>
        </mxGraphModel>
    </diagram>
    <diagram name="Copy of Page-2" id="wGGCoqhekfrhkk6rmXAf">
        <mxGraphModel dx="559" dy="450" grid="1" gridSize="10" guides="1" tooltips="1" connect="1" arrows="1" fold="1" page="1" pageScale="1" pageWidth="827" pageHeight="1169" math="0" shadow="0">
            <root>
                <mxCell id="_SHjirO3JfAntVt3ac7E-0"/>
                <mxCell id="_SHjirO3JfAntVt3ac7E-1" parent="_SHjirO3JfAntVt3ac7E-0"/>
                <mxCell id="_SHjirO3JfAntVt3ac7E-5" value="Core - DslService" style="shape=umlLifeline;perimeter=lifelinePerimeter;whiteSpace=wrap;html=1;container=1;collapsible=0;recursiveResize=0;outlineConnect=0;" parent="_SHjirO3JfAntVt3ac7E-1" vertex="1">
                    <mxGeometry x="170" y="140" width="100" height="180" as="geometry"/>
                </mxCell>
                <mxCell id="_SHjirO3JfAntVt3ac7E-6" value="" style="html=1;points=[];perimeter=orthogonalPerimeter;" parent="_SHjirO3JfAntVt3ac7E-5" vertex="1">
                    <mxGeometry x="45" y="60" width="10" height="90" as="geometry"/>
                </mxCell>
                <mxCell id="_SHjirO3JfAntVt3ac7E-7" value="createDsl(dslScript)" style="html=1;verticalAlign=bottom;startArrow=oval;endArrow=block;startSize=8;" parent="_SHjirO3JfAntVt3ac7E-5" edge="1">
                    <mxGeometry relative="1" as="geometry">
                        <mxPoint x="-80" y="60" as="sourcePoint"/>
                        <mxPoint x="50" y="60" as="targetPoint"/>
                    </mxGeometry>
                </mxCell>
                <mxCell id="_SHjirO3JfAntVt3ac7E-11" value="DataBase" style="shape=umlLifeline;perimeter=lifelinePerimeter;whiteSpace=wrap;html=1;container=1;collapsible=0;recursiveResize=0;outlineConnect=0;" parent="_SHjirO3JfAntVt3ac7E-1" vertex="1">
                    <mxGeometry x="490" y="130" width="100" height="190" as="geometry"/>
                </mxCell>
                <mxCell id="_SHjirO3JfAntVt3ac7E-12" value="" style="html=1;points=[];perimeter=orthogonalPerimeter;" parent="_SHjirO3JfAntVt3ac7E-11" vertex="1">
                    <mxGeometry x="45" y="80" width="10" height="25" as="geometry"/>
                </mxCell>
                <mxCell id="_SHjirO3JfAntVt3ac7E-16" value="" style="html=1;verticalAlign=bottom;labelBackgroundColor=none;endArrow=open;endFill=0;dashed=1;" parent="_SHjirO3JfAntVt3ac7E-1" source="_SHjirO3JfAntVt3ac7E-6" edge="1">
                    <mxGeometry width="160" relative="1" as="geometry">
                        <mxPoint x="230" y="273" as="sourcePoint"/>
                        <mxPoint x="350" y="270" as="targetPoint"/>
                    </mxGeometry>
                </mxCell>
                <mxCell id="_SHjirO3JfAntVt3ac7E-17" value="&amp;lt;&amp;lt;async - create&amp;gt;&amp;gt;" style="edgeLabel;html=1;align=center;verticalAlign=middle;resizable=0;points=[];" parent="_SHjirO3JfAntVt3ac7E-16" vertex="1" connectable="0">
                    <mxGeometry x="0.45" relative="1" as="geometry">
                        <mxPoint x="-27" y="-10" as="offset"/>
                    </mxGeometry>
                </mxCell>
                <mxCell id="_SHjirO3JfAntVt3ac7E-18" value="BuilderJob" style="shape=umlLifeline;perimeter=lifelinePerimeter;whiteSpace=wrap;html=1;container=1;collapsible=0;recursiveResize=0;outlineConnect=0;" parent="_SHjirO3JfAntVt3ac7E-1" vertex="1">
                    <mxGeometry x="350" y="250" width="100" height="70" as="geometry"/>
                </mxCell>
                <mxCell id="_SHjirO3JfAntVt3ac7E-21" value="createDsl(...)" style="html=1;verticalAlign=bottom;endArrow=block;entryX=0;entryY=0;exitX=1.104;exitY=0.106;exitDx=0;exitDy=0;exitPerimeter=0;" parent="_SHjirO3JfAntVt3ac7E-1" source="_SHjirO3JfAntVt3ac7E-6" target="_SHjirO3JfAntVt3ac7E-12" edge="1">
                    <mxGeometry relative="1" as="geometry">
                        <mxPoint x="240" y="210" as="sourcePoint"/>
                    </mxGeometry>
                </mxCell>
                <mxCell id="_SHjirO3JfAntVt3ac7E-22" value="id" style="html=1;verticalAlign=bottom;endArrow=open;dashed=1;endSize=8;exitX=0;exitY=0.95;" parent="_SHjirO3JfAntVt3ac7E-1" source="_SHjirO3JfAntVt3ac7E-12" target="_SHjirO3JfAntVt3ac7E-6" edge="1">
                    <mxGeometry relative="1" as="geometry">
                        <mxPoint x="250" y="234" as="targetPoint"/>
                    </mxGeometry>
                </mxCell>
                <mxCell id="_SHjirO3JfAntVt3ac7E-29" value="" style="html=1;verticalAlign=bottom;endArrow=open;dashed=1;endSize=8;" parent="_SHjirO3JfAntVt3ac7E-1" source="_SHjirO3JfAntVt3ac7E-6" edge="1">
                    <mxGeometry x="-0.1429" y="-10" relative="1" as="geometry">
                        <mxPoint x="210" y="280" as="sourcePoint"/>
                        <mxPoint x="80" y="280" as="targetPoint"/>
                        <mxPoint as="offset"/>
                    </mxGeometry>
                </mxCell>
            </root>
        </mxGraphModel>
    </diagram>
</mxfile>